<svg width="27" height="43" viewBox="0 0 27 43" fill="none" xmlns="http://www.w3.org/2000/svg">
<g clip-path="url(#clip0_646_10799)">
<g opacity="0.12" filter="url(#filter0_f_646_10799)">
<ellipse cx="13.5" cy="39.5" rx="4.5" ry="2.5" fill="#061210"/>
</g>
<path d="M13.5 1C20.4036 1 26 6.59644 26 13.5C26 16.3142 25.0694 18.9108 23.5 21C21 24.5 14.5 29 14.5 38C14.5 38.5523 14.0523 39 13.5 39C12.9477 39 12.5 38.5523 12.5 38C12.5 29 6 24.5 3.5 21C1.93058 18.9108 1 16.3142 1 13.5C1 6.59644 6.59644 1 13.5 1Z" fill="#EA352B"/>
<circle opacity="0.4" cx="13.5" cy="13.5" r="4.5" fill="#061210"/>
</g>
<defs>
<filter id="filter0_f_646_10799" x="7" y="35" width="13" height="9" filterUnits="userSpaceOnUse" color-interpolation-filters="sRGB">
<feFlood flood-opacity="0" result="BackgroundImageFix"/>
<feBlend mode="normal" in="SourceGraphic" in2="BackgroundImageFix" result="shape"/>
<feGaussianBlur stdDeviation="1" result="effect1_foregroundBlur_646_10799"/>
</filter>
<clipPath id="clip0_646_10799">
<rect width="27" height="43" fill="white"/>
</clipPath>
</defs>
</svg>
